<svg id="Capa_1" enable-background="new 0 0 512 512" height="512" viewBox="0 0 512 512" width="512" xmlns="http://www.w3.org/2000/svg"><g><g><path d="m363.159 125.351v-25.151c0-51.197-41.503-92.7-92.7-92.7h-14.532c-51.197 0-92.7 41.503-92.7 92.7v25.151c56.309-52.004 143.624-52.002 199.932 0z" fill="#fd4755"/></g><g><path d="m205.115 98.196c.971-45.652 34.923-83.185 78.999-89.692-4.457-.658-9.015-1.003-13.654-1.003h-14.532c-51.197 0-92.7 41.503-92.7 92.7v25.151c12.635-11.67 26.828-20.724 41.887-27.156z" fill="#fb2b3a"/></g><g fill="#fd4755"><path d="m201.96 326.765v-37.351h-57.538c-15.148 0-27.428 12.28-27.428 27.428v9.922h84.966z"/><path d="m381.965 289.414h-57.538v55.899c0 2.377-2.633 3.81-4.63 2.519l-56.604-36.62-46.074 29.808v69.126h28.914c2.209 0 4 1.791 4 4v90.354h93.256v-135.238c0-1.657 1.343-3 3-3h28.817v-11.812c0-1.657 1.343-3 3-3h31.287v-34.608c0-15.148-12.28-27.428-27.428-27.428z"/></g><g><path d="m158.601 326.765v-9.922c0-15.148 12.28-27.428 27.428-27.428h-41.607c-15.148 0-27.428 12.28-27.428 27.428v9.922z" fill="#fb2b3a"/></g><g fill="#fb2b3a"><path d="m256.644 315.449-22.729-23.117c-1.839-1.87-2.869-4.388-2.869-7.011v-24.665l-29.086 28.758v37.351h12.159c1.657 0 3 1.343 3 3v11.256z"/><path d="m295.341 260.656v24.665c0 2.623-1.03 5.141-2.869 7.011l-22.729 23.117 50.054 32.383c1.996 1.292 4.63-.141 4.63-2.519v-55.899z"/></g><g><path d="m231.046 285.322v-24.666l-29.086 28.758v37.351h12.159c1.657 0 3 1.343 3 3v11.256l5.414-3.503v-37.974l9.667-9.558c-.751-1.426-1.154-3.025-1.154-4.664z" fill="#e41f2d"/></g><path d="m284.726 260.346h-43.066c-3.633 0-7.18-.362-10.615-1.036v26.011c0 2.623 1.031 5.141 2.869 7.011l29.278 29.779 29.278-29.779c1.839-1.87 2.869-4.388 2.869-7.011v-26.011c-3.433.674-6.98 1.036-10.613 1.036z" fill="#ffbd86"/><path d="m258.705 285.322v-24.975h-17.044c-3.633 0-7.18-.362-10.615-1.036v26.011c0 2.623 1.031 5.141 2.869 7.011l29.278 29.779 13.829-14.066-15.449-15.713c-1.838-1.871-2.868-4.389-2.868-7.011z" fill="#f6a96c"/><g fill="#ffbd86"><path d="m186.804 205.49v-58.657c-1.843 1.623-3.651 3.306-5.411 5.066-5.68 5.681-14.588 6.14-20.809 1.408-5.044 4.672-8.205 11.349-8.205 18.766v9.527c0 14.127 11.452 25.578 25.578 25.578h8.889c-.016-.562-.042-1.122-.042-1.688z"/><path d="m365.803 153.306c-2.827 2.15-6.202 3.241-9.585 3.241-4.063 0-8.125-1.55-11.224-4.649-1.76-1.76-3.568-3.443-5.411-5.066v58.657c0 .566-.026 1.126-.043 1.688h8.889c14.127 0 25.578-11.452 25.578-25.578v-9.527c0-7.417-3.16-14.094-8.204-18.766z"/></g><path d="m186.804 146.832v58.657c0 30.297 24.56 54.857 54.857 54.857h43.066c30.296 0 54.856-24.56 54.856-54.857v-58.657c-43.541-38.339-109.24-38.338-152.779 0z" fill="#fed2a4"/><path d="m218 205.49v-78.275c-11.147 4.715-21.698 11.254-31.196 19.617v58.657c0 30.297 24.56 54.857 54.857 54.857h31.196c-30.297 0-54.857-24.56-54.857-54.856z" fill="#ffbd86"/><g><path d="m217.119 411.147v-81.382c0-1.657-1.343-3-3-3h-142.247c-1.657 0-3 1.343-3 3v81.382z" fill="#01c0fa"/><path d="m110.753 410.147v-80.382c0-1.657 1.343-3 3-3h-41.881c-1.657 0-3 1.343-3 3v80.382z" fill="#08a9f1"/><g><path d="m250.033 504.5h-210.075c-2.209 0-4-1.791-4-4v-86.353c0-2.209 1.791-4 4-4h206.075c2.209 0 4 1.791 4 4z" fill="#faea5e"/></g><g><path d="m77.925 500.5v-86.353c0-2.209 1.791-4 4-4h-41.967c-2.209 0-4 1.791-4 4v86.353c0 2.209 1.791 4 4 4h41.967c-2.209 0-4-1.791-4-4z" fill="#ffd600"/></g><g><path d="m87.852 474.877h-23.428c-1.105 0-2-.895-2-2v-33.302c0-1.105.895-2 2-2h23.428c1.105 0 2 .895 2 2v33.302c0 1.105-.896 2-2 2z" fill="#fff"/></g></g><g><g><path d="m356.217 156.547c-4.063 0-8.125-1.549-11.224-4.649-45.105-45.105-118.497-45.103-163.6 0-6.198 6.199-16.25 6.199-22.448 0-6.199-6.199-6.199-16.249 0-22.448 57.483-57.484 151.013-57.481 208.496 0 6.199 6.199 6.199 16.249 0 22.448-3.099 3.1-7.161 4.649-11.224 4.649z" fill="#fb2b3a"/></g></g><g><g><path d="m200.855 129.45c23.409-23.409 52.796-37.283 83.292-41.625-44.389-6.322-91.128 7.552-125.201 41.625-6.199 6.198-6.199 16.249 0 22.448 6.198 6.199 16.25 6.199 22.448 0 4.675-4.675 9.657-8.857 14.876-12.563.303-3.605 1.826-7.127 4.585-9.885z" fill="#e41f2d"/></g></g><path d="m440.186 448.546h17.204v-79.285c0-1.657-1.343-3-3-3h-28.817v9.617c0 1.657-1.343 3-3 3h-44.468c-1.657 0-3-1.343-3-3v-9.617h-28.817c-1.657 0-3 1.343-3 3v135.239h91.412v-50.468c.001-3.03 2.457-5.486 5.486-5.486z" fill="#ea9b58"/><path d="m375.106 366.262h-28.817c-1.657 0-3 1.343-3 3v135.238h31.609v-135.238c0-.38.078-.741.207-1.076v-1.924z" fill="#d88a55"/><g><g><path d="m465.07 504.5h-30.37v-50.468c0-3.03 2.456-5.486 5.486-5.486h24.884c6.059 0 10.971 4.912 10.971 10.971v34.011c.001 6.06-4.911 10.972-10.971 10.972z" fill="#fed2a4"/></g></g><g><path d="m461.145 448.546h-20.958c-3.03 0-5.486 2.456-5.486 5.486v50.468h20.958v-50.468c0-3.03 2.456-5.486 5.486-5.486z" fill="#ffbd86"/></g><g><path d="m422.574 378.879h-44.468c-1.657 0-3-1.343-3-3v-21.429c0-1.657 1.343-3 3-3h44.468c1.657 0 3 1.343 3 3v21.428c0 1.657-1.343 3.001-3 3.001z" fill="#faea5e"/></g><g><path d="m396 375.879v-21.429c0-1.657 1.343-3 3-3h-20.894c-1.657 0-3 1.343-3 3v21.428c0 1.657 1.343 3 3 3h20.894c-1.657.001-3-1.343-3-2.999z" fill="#ffd600"/></g><g><path d="m87.852 430.075h-23.428c-5.238 0-9.5 4.262-9.5 9.5v33.302c0 5.238 4.262 9.5 9.5 9.5h23.428c5.238 0 9.5-4.262 9.5-9.5v-33.302c0-5.238-4.262-9.5-9.5-9.5zm-5.5 37.302h-12.428v-22.302h12.428z"/><path d="m113.989 347.791h-18.651c-4.143 0-7.5 3.358-7.5 7.5s3.357 7.5 7.5 7.5h18.651c4.143 0 7.5-3.358 7.5-7.5s-3.357-7.5-7.5-7.5z"/><path d="m113.989 370.83h-18.651c-4.143 0-7.5 3.358-7.5 7.5s3.357 7.5 7.5 7.5h18.651c4.143 0 7.5-3.358 7.5-7.5s-3.357-7.5-7.5-7.5z"/><path d="m465.07 441.046h-.18v-15.046c0-4.142-3.357-7.5-7.5-7.5s-7.5 3.358-7.5 7.5v15.046h-9.704c-7.161 0-12.986 5.825-12.986 12.986v42.968h-76.411v-123.238h16.816v2.117c0 5.79 4.71 10.5 10.5 10.5h44.469c5.79 0 10.5-4.71 10.5-10.5v-2.117h16.816v17.238c0 4.142 3.357 7.5 7.5 7.5s7.5-3.358 7.5-7.5v-21.738c0-5.79-4.71-10.5-10.5-10.5h-21.316v-4.312c0-5.79-4.71-10.5-10.5-10.5h-5.682v-27.108c0-19.259-15.669-34.928-34.928-34.928h-54.456l-19.004-18.79c19.901-8.241 34.639-26.495 37.897-48.446h2.027c18.24 0 33.079-14.839 33.079-33.079v-9.527c0-6.886-2.124-13.281-5.74-18.582 2.486-3.775 3.823-8.192 3.823-12.816 0-6.244-2.432-12.113-6.846-16.527-.689-.689-1.388-1.361-2.086-2.034v-21.913c0-19.781-5.764-38.919-16.666-55.344-2.292-3.452-6.945-4.39-10.397-2.101-3.45 2.291-4.391 6.945-2.101 10.396 9.267 13.958 14.164 30.227 14.164 47.048v9.184c-54.662-40.711-130.272-40.711-184.932 0v-9.183c0-46.979 38.221-85.2 85.2-85.2h14.531c17.45 0 34.227 5.242 48.517 15.16 3.402 2.363 8.077 1.518 10.438-1.885 2.362-3.403 1.519-8.076-1.885-10.438-16.811-11.669-36.546-17.837-57.068-17.837h-14.531c-55.251 0-100.2 44.949-100.2 100.2v21.914c-.698.673-1.397 1.344-2.085 2.033-4.415 4.415-6.847 10.284-6.847 16.528 0 4.625 1.337 9.042 3.823 12.817-3.615 5.3-5.739 11.695-5.739 18.581v9.527c0 18.24 14.839 33.079 33.078 33.079h2.028c3.257 21.951 17.996 40.205 37.896 48.446l-19.005 18.79h-54.456c-19.259 0-34.928 15.669-34.928 34.928v2.423h-37.621c-5.79 0-10.5 4.71-10.5 10.5v72.882h-21.414c-6.341 0-11.5 5.159-11.5 11.5v86.352c0 6.341 5.159 11.5 11.5 11.5h425.112c10.186 0 18.472-8.286 18.472-18.471v-34.011c0-10.185-8.286-18.472-18.472-18.472zm-46.996-82.096v12.428h-35.469v-12.428zm-101.147-66.405v44.497l-35.387-22.894 16.28-16.558c3.238-3.293 5.021-7.65 5.021-12.269v-6.704zm-53.734 18.869-23.931-24.339c-.462-.47-.717-1.093-.717-1.752v-17.555c1.032.051 2.071.079 3.115.079h43.065c1.044 0 2.082-.028 3.114-.079v17.555c0 .66-.255 1.282-.717 1.752zm103.315-129.815c0 9.969-8.11 18.079-18.079 18.079h-1.346v-37.48c2.852 1.211 5.944 1.849 9.135 1.849 2.657 0 5.245-.444 7.683-1.29 1.65 2.721 2.607 5.905 2.607 9.315zm-187.203 18.079h-1.347c-9.969 0-18.078-8.11-18.078-18.079v-9.527c0-3.41.957-6.595 2.607-9.315 2.438.846 5.026 1.29 7.683 1.29 3.191 0 6.283-.639 9.135-1.85zm-3.215-53.083c-1.581 1.581-3.684 2.452-5.92 2.452-2.237 0-4.34-.871-5.922-2.453-1.581-1.581-2.452-3.684-2.452-5.92 0-2.237.871-4.339 2.453-5.921 54.558-54.559 143.33-54.557 197.89 0 1.581 1.581 2.452 3.684 2.452 5.92s-.871 4.339-2.453 5.921c-1.581 1.581-3.684 2.452-5.92 2.452s-4.34-.871-5.921-2.453c-23.231-23.231-54.166-36.025-87.104-36.025-32.939.002-63.873 12.796-87.103 36.027zm18.215 58.895v-55.21c19.319-16 43.418-24.709 68.888-24.709s49.571 8.71 68.891 24.711v55.209c0 26.112-21.244 47.356-47.356 47.356h-43.065c-26.114-.001-47.358-21.245-47.358-47.357zm15.155 87.055 14.086-13.927v6.704c0 4.619 1.783 8.976 5.021 12.269l16.28 16.558-20.503 13.265c-1.072-4.659-5.244-8.148-10.225-8.148h-4.659zm-84.966 24.297c0-10.988 8.939-19.928 19.928-19.928h50.038v22.351h-69.966zm118.039 180.158h-199.075v-79.353h118.542c4.143 0 7.5-3.358 7.5-7.5s-3.357-7.5-7.5-7.5h-85.628v-68.382h133.247v68.382h-12.619c-4.143 0-7.5 3.358-7.5 7.5s3.357 7.5 7.5 7.5h45.533zm93.256-127.738v127.738h-78.256v-82.853c0-6.341-5.159-11.5-11.5-11.5h-21.414v-57.546l30.964-20.033.11.112v38.82c0 4.142 3.357 7.5 7.5 7.5s7.5-3.358 7.5-7.5v-38.82l.11-.112 44.92 29.061c3.231 2.09 7.339 2.248 10.722.408 3.381-1.839 5.481-5.374 5.481-9.223v-48.4h50.038c10.988 0 19.928 8.94 19.928 19.928v27.108h-23.787c-5.79 0-10.5 4.71-10.5 10.5v4.312h-21.316c-5.79 0-10.5 4.71-10.5 10.5zm132.753 124.267c0 1.914-1.558 3.471-3.472 3.471h-22.87v-40.954h22.87c1.914 0 3.472 1.557 3.472 3.471z"/><path d="m237.191 170.498v-13.277c0-4.142-3.357-7.5-7.5-7.5s-7.5 3.358-7.5 7.5v13.277c0 4.142 3.357 7.5 7.5 7.5s7.5-3.358 7.5-7.5z"/><path d="m296.695 177.998c4.143 0 7.5-3.358 7.5-7.5v-13.277c0-4.142-3.357-7.5-7.5-7.5s-7.5 3.358-7.5 7.5v13.277c0 4.142 3.358 7.5 7.5 7.5z"/><path d="m293.305 223.042c2.929-2.929 2.929-7.678 0-10.606-2.93-2.929-7.678-2.929-10.607 0-5.215 5.215-12.142 8.087-19.504 8.087s-14.288-2.872-19.503-8.087c-2.929-2.928-7.678-2.929-10.606 0-2.93 2.929-2.93 7.678-.001 10.607 8.048 8.048 18.741 12.48 30.11 12.48s22.062-4.432 30.111-12.481z"/><path d="m259.65 199.256h10.635c4.143 0 7.5-3.358 7.5-7.5s-3.357-7.5-7.5-7.5h-3.135v-11.396c0-4.142-3.357-7.5-7.5-7.5s-7.5 3.358-7.5 7.5v18.896c0 4.142 3.358 7.5 7.5 7.5z"/></g></g></svg>